<svg width="48" height="48" viewBox="0 0 48 48" fill="none" xmlns="http://www.w3.org/2000/svg">
<rect x="1" y="1" width="46" height="46" rx="7" fill="black"/>
<g clip-path="url(#clip0_1277_402)">
<path d="M38.3971 14.9226C37.2963 15.4102 36.1287 15.7303 34.9331 15.8722C36.1784 15.1258 37.1347 13.9439 37.5849 12.5356C36.4011 13.2381 35.1058 13.7331 33.7551 13.9991C32.6549 12.827 31.0876 12.0945 29.3528 12.0945C26.022 12.0945 23.3215 14.7949 23.3215 18.1255C23.3215 18.5983 23.3749 19.0585 23.4776 19.5C18.4652 19.2484 14.0212 16.8474 11.0464 13.1985C10.5274 14.0892 10.23 15.1254 10.23 16.2305C10.23 18.323 11.2948 20.1689 12.913 21.2505C11.9553 21.2205 11.0186 20.9619 10.1812 20.4961C10.1808 20.5214 10.1808 20.5466 10.1808 20.572C10.1808 23.4941 12.2598 25.9318 15.0187 26.4859C14.1306 26.7274 13.199 26.7628 12.2951 26.5892C13.0625 28.9853 15.29 30.7289 17.929 30.7777C15.8649 32.3953 13.2643 33.3595 10.4387 33.3595C9.95185 33.3595 9.47185 33.3309 9 33.2752C11.6691 34.9865 14.8392 35.9849 18.2452 35.9849C29.3388 35.9849 35.4051 26.7948 35.4051 18.8249C35.4051 18.5633 35.3993 18.3032 35.3876 18.0446C36.5683 17.1911 37.5875 16.1338 38.3971 14.9226Z" fill="white"/>
</g>
<rect x="1" y="1" width="46" height="46" rx="7" stroke="white" stroke-width="2"/>
<defs>
<clipPath id="clip0_1277_402">
<rect width="29.4" height="24" fill="white" transform="translate(9 12)"/>
</clipPath>
</defs>
</svg>
